<svg viewBox="0 0 600 450" xmlns="http://www.w3.org/2000/svg" preserveAspectRatio="xMidYMid slice">
  <defs>
    <linearGradient id="oSunset" x1="0" y1="0" x2="0" y2="1">
      <stop offset="0" stop-color="#E8C598"/>
      <stop offset="0.4" stop-color="#D4875A"/>
      <stop offset="0.75" stop-color="#A0563C"/>
      <stop offset="1" stop-color="#5E3828"/>
    </linearGradient>
    <linearGradient id="oGrass" x1="0" y1="0" x2="0" y2="1">
      <stop offset="0" stop-color="#C8A870"/>
      <stop offset="0.6" stop-color="#8E7446"/>
      <stop offset="1" stop-color="#5E4530"/>
    </linearGradient>
  </defs>
  <rect width="600" height="450" fill="url(#oSunset)"/>
  <!-- sun -->
  <circle cx="440" cy="180" r="38" fill="#F8DAA6" opacity="0.95"/>
  <circle cx="440" cy="180" r="58" fill="#F8DAA6" opacity="0.28"/>
  <!-- halla silhouette -->
  <polygon points="0,220 100,170 220,200 340,160 460,195 600,175 600,260 0,260" fill="#3E2E20" opacity="0.7"/>
  <polygon points="0,255 120,215 260,230 400,210 540,225 600,218 600,290 0,290" fill="#2A1F14" opacity="0.8"/>
  <!-- oreum hills -->
  <g fill="#4A3424" opacity="0.88">
    <path d="M 60 310 Q 150 230 240 310 Z"/>
    <path d="M 310 300 Q 390 235 470 300 Z"/>
  </g>
  <!-- grass field -->
  <rect x="0" y="290" width="600" height="160" fill="url(#oGrass)"/>
  <!-- pampas grass -->
  <g stroke="#F8DAA6" stroke-width="1" opacity="0.85">
    <line x1="40" y1="450" x2="38" y2="355"/>
    <line x1="75" y1="450" x2="75" y2="370"/>
    <line x1="115" y1="450" x2="112" y2="345"/>
    <line x1="155" y1="450" x2="155" y2="370"/>
    <line x1="200" y1="450" x2="198" y2="358"/>
    <line x1="245" y1="450" x2="245" y2="375"/>
    <line x1="305" y1="450" x2="303" y2="355"/>
    <line x1="370" y1="450" x2="368" y2="372"/>
    <line x1="430" y1="450" x2="430" y2="358"/>
    <line x1="495" y1="450" x2="495" y2="370"/>
    <line x1="545" y1="450" x2="543" y2="358"/>
    <line x1="580" y1="450" x2="578" y2="370"/>
  </g>
  <g fill="#F8DAA6" opacity="0.92">
    <ellipse cx="38" cy="355" rx="6" ry="12"/>
    <ellipse cx="75" cy="370" rx="5" ry="10"/>
    <ellipse cx="112" cy="345" rx="7" ry="14"/>
    <ellipse cx="155" cy="370" rx="5" ry="10"/>
    <ellipse cx="198" cy="358" rx="6" ry="12"/>
    <ellipse cx="245" cy="375" rx="5" ry="10"/>
    <ellipse cx="303" cy="355" rx="6" ry="12"/>
    <ellipse cx="368" cy="372" rx="5" ry="10"/>
    <ellipse cx="430" cy="358" rx="6" ry="13"/>
    <ellipse cx="495" cy="370" rx="5" ry="10"/>
    <ellipse cx="543" cy="358" rx="6" ry="12"/>
    <ellipse cx="578" cy="370" rx="5" ry="10"/>
  </g>
  <!-- stay building -->
  <g>
    <rect x="220" y="235" width="160" height="65" fill="#E8D5B0"/>
    <rect x="220" y="235" width="160" height="6" fill="#C8B490"/>
    <rect x="240" y="255" width="120" height="38" fill="#C47954" opacity="0.55"/>
    <g stroke="#6B4E2E" stroke-width="1" fill="none">
      <line x1="280" y1="255" x2="280" y2="293"/>
      <line x1="320" y1="255" x2="320" y2="293"/>
    </g>
    <rect x="290" y="283" width="20" height="17" fill="#3E2E20"/>
    <rect x="220" y="229" width="160" height="5" fill="#5E4530" opacity="0.6"/>
  </g>
  <!-- landscape lights -->
  <circle cx="180" cy="335" r="4" fill="#F5DFA5"/>
  <circle cx="180" cy="335" r="11" fill="#F5DFA5" opacity="0.35"/>
  <circle cx="410" cy="332" r="4" fill="#F5DFA5"/>
  <circle cx="410" cy="332" r="11" fill="#F5DFA5" opacity="0.35"/>
  <!-- wordmark -->
  <text x="30" y="55" font-family="Fraunces, Georgia, serif" font-size="30" fill="#FBF6E8" letter-spacing="0.02em">OREUM</text>
  <text x="30" y="78" font-family="Fraunces, Georgia, serif" font-style="italic" font-size="13" fill="#F8DAA6" opacity="0.95" letter-spacing="0.05em">Hilltop stay · 제주 동부 오름 자락</text>
  <text x="30" y="432" font-family="Pretendard, sans-serif" font-size="11" fill="#F5EFE0" letter-spacing="0.04em">독채 3동 · 억새 · 노을 · 오름 일출 트레킹</text>
</svg>
